# Blender v2.79 (sub 0) OBJ File: ''
# www.blender.org
mtllib waterWithTex2.mtl
o Water_(1)
v 9.591717 0.000000 16.120270
v 0.000000 0.000000 -0.059783
v -3.388283 0.000000 16.120270
v 14.670000 0.000000 -0.059783
v 14.304818 0.000000 2.020004
v 0.000000 0.000000 -5.059783
v 15.000000 0.000000 -5.059783
v 6.334409 0.000000 28.043335
v -3.388283 0.000000 26.790268
vt 0.390749 0.010591
vt 0.744000 0.398655
vt 0.284698 0.356844
vt 0.863858 0.007319
vt 0.805381 0.000066
vt 0.877379 0.439506
vt 0.999934 0.039367
vt 0.046077 0.000068
vt 0.000066 0.269667
vn 0.0000 1.0000 0.0000
usemtl None
s off
f 1/1/1 2/2/1 3/3/1
f 2/2/1 1/1/1 4/4/1
f 4/4/1 1/1/1 5/5/1
f 4/4/1 6/6/1 2/2/1
f 6/6/1 4/4/1 7/7/1
f 8/8/1 3/3/1 9/9/1
f 3/3/1 8/8/1 1/1/1
